<svg xmlns="http://www.w3.org/2000/svg" width="32" height="32" viewBox="0 0 32 32">
  <path fill-rule="evenodd" d="M16,0.4 C7.2,0.4 0,7.6 0,16.4 C0,23.5 4.6,29.5 10.9,31.6 C11.7,31.7 12,31.3 12,30.8 C12,30.4 12,29.4 12,28.1 C7.5,29.1 6.6,26 6.6,26 C5.9,24.2 4.8,23.7 4.8,23.7 C3.3,22.7 4.9,22.7 4.9,22.7 C6.5,22.8 7.4,24.3 7.4,24.3 C8.8,26.7 11.1,26 12.1,25.6 C12.2,24.6 12.7,23.9 13.1,23.5 C9.5,23.1 5.8,21.7 5.8,15.6 C5.8,13.9 6.4,12.4 7.4,11.3 C7.2,10.9 6.7,9.3 7.6,7.1 C7.6,7.1 8.9,6.7 12,8.7 C13.3,8.3 14.6,8.2 16,8.2 C17.4,8.2 18.7,8.4 20,8.7 C23.1,6.6 24.4,7 24.4,7 C25.3,9.2 24.7,10.8 24.6,11.2 C25.6,12.3 26.2,13.7 26.2,15.5 C26.2,21.6 22.5,23 18.9,23.4 C19.5,23.9 20,24.9 20,26.4 C20,28.5 20,30.3 20,30.8 C20,31.2 20.3,31.7 21.1,31.6 C27.4,29.5 32,23.5 32,16.4 C32,7.6 24.8,0.4 16,0.4 Z"/>
</svg>
