<svg width="20" height="20" xmlns="http://www.w3.org/2000/svg"><path d="M9.6 1.73c2.563 0 2.867.01 3.88.056 2.602.119 3.817 1.353 3.935 3.936.047 1.012.055 1.316.055 3.879 0 2.564-.01 2.867-.055 3.879-.119 2.58-1.331 3.817-3.935 3.935-1.013.047-1.315.056-3.88.056-2.563 0-2.867-.01-3.88-.056-2.607-.119-3.816-1.359-3.934-3.936-.047-1.012-.056-1.315-.056-3.879 0-2.563.01-2.866.056-3.88.119-2.58 1.33-3.816 3.935-3.934C6.734 1.74 7.037 1.73 9.6 1.73zM9.6 0C6.993 0 6.666.011 5.642.058 2.156.218.218 2.152.058 5.642.011 6.666 0 6.992 0 9.6c0 2.607.011 2.934.058 3.958.16 3.487 2.094 5.424 5.584 5.584 1.024.047 1.35.058 3.958.058 2.607 0 2.934-.011 3.958-.058 3.484-.16 5.426-2.094 5.584-5.584.047-1.024.058-1.35.058-3.958 0-2.607-.011-2.934-.058-3.958C18.986 2.16 17.05.218 13.56.058 12.534.011 12.207 0 9.6 0zm0 4.67a4.93 4.93 0 1 0 0 9.86 4.93 4.93 0 0 0 0-9.86zm0 8.13a3.2 3.2 0 1 1 0-6.4 3.2 3.2 0 0 1 0 6.4zm5.125-9.476a1.152 1.152 0 1 0 0 2.305 1.152 1.152 0 0 0 0-2.305z" fill-rule="nonzero"/></svg>