<svg xmlns="http://www.w3.org/2000/svg" width="30" height="30" viewBox="0 0 30 30">
  <path fill="#FFF" d="M28,0 L2,0 C0.8954305,0 0,0.8954305 0,2 L0,28 C0,29.1045695 0.8954305,30 2,30 L28,30 C29.1045695,30 30,29.1045695 30,28 L30,2 C30,0.8954305 29.1045695,0 28,0 Z M8.887,25.594 L4.374,25.594 L4.374,11.25 L8.887,11.25 L8.887,25.594 Z M6.63,9.28101546 C5.18130214,9.2765849 4.01006425,8.09938452 4.01299988,6.65068292 C4.01594657,5.20198131 5.19195469,4.02954632 6.64065854,4.03101216 C8.08936239,4.03248075 9.2630002,5.20729541 9.2630002,6.656 C9.26326998,7.3536635 8.98569584,8.02271305 8.4916232,8.51528453 C7.99755055,9.007856 7.32765945,9.28339295 6.63,9.28101546 L6.63,9.28101546 Z M25.621,25.594 L21.2,25.594 L21.2,18.656 C21.2,16.969 21.2,14.906 18.85,14.906 C16.5,14.906 16.217,16.688 16.217,18.562 L16.217,25.688 L11.8,25.688 L11.8,11.25 L15.936,11.25 L15.936,13.219 L16.03,13.219 C16.8991971,11.7162276 18.5260001,10.8149687 20.261,10.875 C24.774,10.875 25.62,13.875 25.62,17.719 L25.621,25.594 Z"/>
</svg>
