<svg width="20" height="16" xmlns="http://www.w3.org/2000/svg"><path d="M20 1.879c-.727.303-1.455.545-2.303.606.848-.485 1.455-1.273 1.758-2.182-.788.485-1.637.788-2.546.97C16.182.485 15.152 0 14.061 0c-2.182 0-4 1.758-4 4 0 .303.06.606.12.91C6.849 4.726 3.94 3.151 1.94.726a3.815 3.815 0 0 0-.545 2c0 1.394.727 2.606 1.758 3.334a3.702 3.702 0 0 1-1.819-.485v.06c0 1.94 1.394 3.516 3.212 3.88-.363.06-.666.12-1.03.12-.242 0-.485 0-.727-.06.485 1.576 2 2.727 3.697 2.788-1.333 1.09-3.091 1.697-4.97 1.697-.303 0-.667 0-.97-.061 1.819 1.09 3.94 1.758 6.182 1.758 7.334 0 11.334-6.061 11.334-11.334V3.94c.727-.606 1.394-1.272 1.939-2.06z" fill-rule="nonzero"/></svg>